<svg width="245" height="33" viewBox="0 0 245 33" fill="none" xmlns="http://www.w3.org/2000/svg">
<path d="M98.3546 3.25782C96.0761 1.07813 93.0158 0 89.1737 0C85.3092 0 82.2265 1.07813 79.9704 3.25782C77.6919 5.4375 76.508 8.53126 76.3963 12.6094C76.3739 13.5 76.3516 14.8125 76.3516 16.5469C76.3516 18.2578 76.3739 19.5469 76.3963 20.4375C76.508 24.5859 77.6695 27.7266 79.881 29.8359C82.0925 31.9453 85.1975 33 89.1737 33C93.1275 33 96.2325 31.9453 98.444 29.8359C100.678 27.7266 101.839 24.6094 101.951 20.4375C102.018 18.6562 102.04 17.3672 102.04 16.5469C102.04 15.7031 102.018 14.3672 101.951 12.6094C101.839 8.5547 100.633 5.4375 98.3546 3.25782ZM95.6294 20.2031C95.54 22.7344 94.9369 24.6094 93.7976 25.8281C92.6584 27.0469 91.1171 27.6562 89.1737 27.6562C87.2302 27.6562 85.6666 27.0469 84.5273 25.8047C83.3881 24.5625 82.7626 22.6875 82.7179 20.2031C82.6956 19.289 82.6733 18.0469 82.6733 16.5C82.6733 14.9063 82.6956 13.6641 82.7179 12.7969C82.785 10.2891 83.3881 8.41405 84.5497 7.1953C85.7113 5.95311 87.2526 5.34376 89.1737 5.34376C91.0724 5.34376 92.5914 5.95311 93.753 7.1953C94.9146 8.43749 95.54 10.3125 95.6294 12.7969C95.6964 14.5781 95.7187 15.7969 95.7187 16.5C95.7187 17.1563 95.674 18.375 95.6294 20.2031Z" fill="#000000"/>
<path d="M223.202 1.33593C222.845 0.749988 222.398 0.46875 221.84 0.46875H217.908C217.685 0.46875 217.461 0.562488 217.283 0.749988C217.104 0.937488 216.992 1.17187 216.992 1.42968C216.992 1.49999 217.037 1.66407 217.126 1.94532L223.716 14.1797C223.984 14.6719 224.632 14.6719 224.9 14.1797L227.178 10.0781C227.446 9.60937 227.446 9.02343 227.178 8.55468L223.202 1.33593Z" fill="#000000"/>
<path d="M21.0425 3.07031C19.0321 1.33593 16.2621 0.46875 12.755 0.46875H1.04989C0.737157 0.46875 0.4691 0.585943 0.290395 0.79688C0.11169 1.00782 0 1.28907 0 1.61719V5.60157H12.554C14.2964 5.60157 15.6143 6.04687 16.4632 6.93749C17.312 7.82812 17.7588 9.07032 17.7588 10.6406C17.7588 12.2578 17.312 13.5 16.4185 14.3203C15.525 15.1641 14.2517 15.5859 12.554 15.5859H0V31.4297C0 31.7344 0.11169 31.9922 0.312733 32.2031C0.513776 32.4141 0.759495 32.5313 1.04989 32.5313H5.24945C5.56218 32.5313 5.83024 32.4375 6.03128 32.2266C6.23233 32.0391 6.34402 31.7578 6.34402 31.4297V20.7187H12.755C16.2845 20.7187 19.0321 19.875 21.0425 18.1875C23.0529 16.5 24.0581 13.9922 24.0581 10.6875C24.0581 7.35937 23.0529 4.82812 21.0425 3.07031Z" fill="#000000"/>
<path d="M56.4037 19.3828C58.2354 18.7031 59.665 17.625 60.6926 16.1015C61.7201 14.5781 62.2116 12.7266 62.2116 10.5C62.2116 7.28907 61.2064 4.82812 59.1736 3.07031C57.1408 1.33593 54.3486 0.46875 50.7745 0.46875H39.4714C39.1587 0.46875 38.8906 0.585943 38.7119 0.79688C38.5332 1.00782 38.4215 1.28907 38.4215 1.61719V5.60157H50.6405C52.3828 5.60157 53.7008 6.02345 54.572 6.8672C55.4431 7.71095 55.8899 8.90624 55.8899 10.4531C55.8899 12 55.4431 13.1953 54.572 13.9922C53.7008 14.8125 52.3828 15.2109 50.6405 15.2109H38.4215V31.4297C38.4215 31.7344 38.5332 31.9922 38.7342 32.2031C38.9353 32.4141 39.181 32.5313 39.4714 32.5313H43.4923C43.805 32.5313 44.0731 32.4141 44.2741 32.2031C44.4751 31.9922 44.5868 31.7344 44.5868 31.4297V20.4375H50.5734L56.158 31.2891C56.359 31.6641 56.6047 31.9453 56.8504 32.1797C57.0962 32.4141 57.4759 32.5313 57.945 32.5313H61.9659C62.1892 32.5313 62.4126 32.4375 62.5913 32.25C62.77 32.0625 62.8817 31.8281 62.8817 31.5703C62.8817 31.4062 62.837 31.2422 62.7477 31.0547L56.4037 19.3828Z" fill="#000000"/>
<path d="M243.865 0.749988C243.686 0.562488 243.463 0.46875 243.239 0.46875H239.263C238.951 0.46875 238.683 0.562488 238.459 0.749988C238.236 0.937488 238.079 1.12499 237.968 1.33593L228.027 19.2656C227.714 19.8047 227.558 20.4375 227.558 21.0703L227.536 31.4531C227.536 31.7578 227.647 32.0156 227.849 32.2266C228.05 32.4375 228.295 32.5547 228.586 32.5547H232.607C232.919 32.5547 233.187 32.4609 233.388 32.25C233.589 32.0625 233.701 31.7812 233.701 31.4531V21.8672C233.701 21.3984 233.813 20.9297 234.036 20.5078L237.365 14.2969C237.409 14.25 237.454 14.2266 237.476 14.1797L244.066 1.94532C244.155 1.66407 244.2 1.49999 244.2 1.42968C244.155 1.14843 244.066 0.937488 243.865 0.749988Z" fill="#000000"/>
<path d="M129.002 0.46875H118.347C118.034 0.46875 117.766 0.585943 117.588 0.79688C117.409 1.00782 117.297 1.28907 117.297 1.61719V5.78905H128.779C131.214 5.78905 133.023 6.37499 134.14 7.54686C135.279 8.71874 135.883 10.5703 135.927 13.0781C135.994 14.8594 136.017 15.9844 136.017 16.4766C136.017 16.9453 135.994 18.0703 135.927 19.9219C135.86 22.5469 135.302 24.4219 134.23 25.5469C133.157 26.6719 131.415 27.2344 128.98 27.2344H117.253V31.4531C117.253 31.7578 117.364 32.0156 117.565 32.2266C117.766 32.4375 118.012 32.5547 118.303 32.5547H129.181C133.515 32.5547 136.731 31.5469 138.809 29.5078C140.886 27.4687 141.981 24.3281 142.115 20.0391C142.182 18.2578 142.204 17.0859 142.204 16.5C142.204 15.8906 142.182 14.6953 142.115 12.9375C141.981 4.61717 137.603 0.46875 129.002 0.46875Z" fill="#000000"/>
<path d="M203.165 0.46875H192.51C183.932 0.46875 179.531 4.61717 179.375 12.9375C179.308 14.7187 179.286 15.8906 179.286 16.5C179.286 17.0859 179.308 18.2578 179.375 20.0391C179.487 24.3047 180.581 27.4687 182.681 29.5078C184.758 31.5469 187.975 32.5547 192.309 32.5547H203.187C203.478 32.5547 203.723 32.4375 203.924 32.2266C204.125 32.0156 204.237 31.7578 204.237 31.4531V15.6328C204.237 15.3047 204.125 15.0234 203.924 14.8359C203.723 14.6484 203.455 14.5312 203.143 14.5312H193.761C193.47 14.5312 193.224 14.6484 193.023 14.8594C192.822 15.0703 192.711 15.3281 192.711 15.6328V18.7734C192.711 19.0781 192.822 19.3359 193.023 19.5469C193.224 19.7578 193.47 19.875 193.761 19.875H199.166V27.2344H192.51C190.097 27.2344 188.355 26.6719 187.26 25.5469C186.188 24.4219 185.607 22.5469 185.563 19.9219C185.496 18.0937 185.473 16.9453 185.473 16.4766C185.473 15.9844 185.496 14.8594 185.563 13.0781C185.63 10.5703 186.21 8.74217 187.35 7.54686C188.489 6.35155 190.276 5.78905 192.711 5.78905H204.192V1.61719C204.192 1.28907 204.103 1.00782 203.902 0.79688C203.746 0.585943 203.5 0.46875 203.165 0.46875Z" fill="#000000"/>
<path d="M162.867 0.46875H158.667C158.377 0.46875 158.131 0.562511 157.93 0.773449C157.729 0.960949 157.618 1.24218 157.618 1.5703V31.4297C157.618 31.7344 157.729 31.9922 157.93 32.2031C158.131 32.4141 158.377 32.5313 158.667 32.5313H162.867C163.18 32.5313 163.448 32.4141 163.627 32.2031C163.805 31.9922 163.917 31.7344 163.917 31.4297V1.5703C163.917 1.24218 163.828 0.960949 163.627 0.773449C163.448 0.562511 163.18 0.46875 162.867 0.46875Z" fill="#000000"/>
</svg>
